<?xml version="1.0" standalone="no"?>
<!DOCTYPE svg PUBLIC "-//W3C//DTD SVG 20010904//EN"
 "http://www.w3.org/TR/2001/REC-SVG-20010904/DTD/svg10.dtd">
<svg version="1.0" xmlns="http://www.w3.org/2000/svg"
 width="268.000000pt" height="268.000000pt" viewBox="0 0 268.000000 268.000000"
 preserveAspectRatio="xMidYMid meet">
<metadata>
Created by potrace 1.11, written by Peter Selinger 2001-2013
</metadata>
<g transform="translate(0.000000,268.000000) scale(0.100000,-0.100000)"
fill="#000000" stroke="none">
<path d="M1759 1709 c-100 -15 -178 -70 -203 -143 -8 -22 -12 -83 -12 -149 l1
-112 90 0 90 0 5 107 c6 125 14 137 92 138 53 0 83 -23 90 -68 2 -15 3 -105 2
-199 0 -95 2 -174 5 -174 3 -1 52 -2 109 -3 l102 -2 0 197 c0 183 1 198 21
223 38 48 154 29 161 -26 0 -7 2 -95 3 -196 1 -100 5 -186 9 -190 4 -4 43 -7
87 -7 l79 -1 1 121 c2 281 -1 318 -23 363 -24 51 -79 94 -142 112 -71 19 -203
9 -263 -21 l-49 -24 -41 23 c-48 26 -147 41 -214 31z"/>
<path d="M199 1643 c-2 -10 -4 -85 -4 -168 l0 -150 91 -2 91 -1 0 46 c1 26 2
64 2 85 l1 37 174 0 c229 0 261 -13 258 -103 -1 -37 -27 -65 -66 -72 -17 -3
-191 -7 -386 -8 l-355 -3 0 -90 0 -89 400 1 c352 0 406 2 451 17 104 35 174
128 179 236 6 130 -62 225 -195 270 -8 2 -155 6 -326 8 -293 4 -312 3 -315
-14z"/>
<path d="M1107 1640 c-34 -9 -77 -24 -94 -35 -28 -16 -31 -21 -19 -35 8 -8 24
-35 37 -60 43 -87 23 -238 -42 -296 -10 -9 -19 -21 -19 -25 0 -11 81 -58 122
-70 25 -7 449 -14 611 -10 l27 1 0 90 0 90 -257 1 c-142 1 -261 1 -265 0 -4 0
-22 6 -41 14 -60 25 -68 108 -14 149 26 19 43 21 190 23 89 1 168 2 175 2 7 1
12 15 12 36 0 37 20 86 48 118 14 16 13 17 -19 18 -300 5 -395 3 -452 -11z"/>
<path d="M194 1053 c0 -32 4 -60 8 -63 6 -5 129 -5 163 -1 6 0 11 27 11 61 l0
60 -91 0 -91 0 0 -57z"/>
</g>
</svg>
